<svg height="512pt" viewBox="-9 0 512 512.00246" width="512pt" xmlns="http://www.w3.org/2000/svg"><path d="m426.667969 85.335938h-170.667969c-9.414062.027343-17.039062 7.652343-17.066406 17.066406v102.398437c.027344 9.414063 7.652344 17.039063 17.066406 17.066407h8.707031c-.058593.683593-.03125 1.371093.082031 2.050781 3.074219 14.347656 2.273438 29.253906-2.324218 43.191406-1.988282 5.222656-1.28125 11.089844 1.894531 15.691406 3.175781 4.597657 8.410156 7.34375 14 7.335938h40.070313l-19.761719 93.863281h-42.667969c-14.628906 0-27.632812 9.320312-32.335938 23.171875-.789062 2.589844-.296874 5.398437 1.328126 7.566406 1.621093 2.164063 4.179687 3.425781 6.882812 3.398438h201.851562c2.707032.027343 5.261719-1.234375 6.886719-3.398438 1.621094-2.167969 2.113281-4.976562 1.324219-7.566406-4.703125-13.851563-17.707031-23.171875-32.335938-23.171875h-17.066406l34.132813-162.132812c37.703125 0 68.265625-30.5625 68.265625-68.265626 0-37.703124-30.5625-68.265624-68.265625-68.265624zm-104.71875 188.074218c-.550781-.175781-1.117188-.289062-1.691407-.34375l-41.859374.140625c5.671874-16.507812 6.847656-34.226562 3.398437-51.339843h51.003906zm79.117187-162.476562h34.136719c4.710937 0 8.53125 3.820312 8.53125 8.535156 0 4.710938-3.820313 8.53125-8.53125 8.53125h-34.136719c-4.710937 0-8.53125-3.820312-8.53125-8.53125 0-4.714844 3.820313-8.535156 8.53125-8.535156zm34.136719 85.335937h-34.136719c-4.710937 0-8.53125-3.820312-8.53125-8.535156 0-4.710937 3.820313-8.53125 8.53125-8.53125h34.136719c4.710937 0 8.53125 3.820313 8.53125 8.53125 0 4.714844-3.820313 8.535156-8.53125 8.535156zm17.066406-34.132812h-51.203125c-4.710937 0-8.53125-3.824219-8.53125-8.535157 0-4.714843 3.820313-8.535156 8.53125-8.535156h51.203125c4.710938 0 8.53125 3.820313 8.53125 8.535156 0 4.710938-3.820312 8.535157-8.53125 8.535157zm0 0"/><path d="m170.667969 128v51.203125c-.007813 6.789063 2.683593 13.308594 7.488281 18.109375 4.800781 4.804688 11.320312 7.5 18.113281 7.488281h25.597657v-102.398437h-25.597657c-6.792969-.011719-13.3125 2.683594-18.113281 7.488281-4.804688 4.800781-7.496094 11.320313-7.488281 18.109375zm34.132812 0c4.714844 0 8.535157 3.820312 8.535157 8.535156 0 4.710938-3.820313 8.53125-8.535157 8.53125-4.710937 0-8.53125-3.820312-8.53125-8.53125.011719-4.707031 3.824219-8.519531 8.53125-8.535156zm0 0"/><path d="m25.601562 366.933594c0-4.710938 3.820313-8.53125 8.53125-8.53125 4.714844 0 8.535157 3.820312 8.535157 8.53125v136.535156h34.132812c4.707031-.015625 8.519531-3.828125 8.535157-8.535156v-332.796875h42.664062c0 9.421875 7.640625 17.066406 17.066406 17.066406h8.535156v-51.203125h-8.535156c-9.425781 0-17.066406 7.640625-17.066406 17.066406h-42.664062v-128c-.015626-4.707031-3.828126-8.519531-8.535157-8.53125h-68.265625c-4.707031.011719-8.519531 3.824219-8.535156 8.53125v477.867188c.015625 4.707031 3.828125 8.519531 8.535156 8.535156h17.066406zm17.066407-298.664063c0-4.714843 3.820312-8.535156 8.535156-8.535156 4.710937 0 8.53125 3.820313 8.53125 8.535156v102.398438c0 4.714843-3.820313 8.535156-8.53125 8.535156-4.714844 0-8.535156-3.820313-8.535156-8.535156zm0 136.53125c0-4.710937 3.820312-8.53125 8.535156-8.53125 4.710937 0 8.53125 3.820313 8.53125 8.53125v17.066407c0 4.714843-3.820313 8.535156-8.53125 8.535156-4.714844 0-8.535156-3.820313-8.535156-8.535156zm0 0"/><path d="m315.734375 435.203125h34.132813v25.597656h-34.132813zm0 0"/><path d="m238.933594 435.203125v53.757813c.121094 12.84375 10.625 23.15625 23.46875 23.039062h140.800781c12.839844.117188 23.34375-10.195312 23.464844-23.039062v-53.757813h-59.734375v25.597656c-.011719 9.421875-7.644532 17.054688-17.066406 17.066407h-34.132813c-9.421875-.011719-17.054687-7.644532-17.066406-17.066407v-25.597656zm0 0"/><path d="m162.050781 52.371094c.320313-2.320313-.324219-4.667969-1.785156-6.5l-34.132813-42.664063c-2.945312-3.683593-8.3125-4.28125-11.996093-1.339843-3.679688 2.945312-4.28125 8.316406-1.335938 11.996093l28.511719 35.632813-18.269531 13.054687c-2.070313 1.480469-3.371094 3.804688-3.550781 6.34375-.179688 2.535157.785156 5.023438 2.625 6.777344l25.601562 24.378906c2.195312 2.160157 5.386719 2.96875 8.347656 2.117188 2.960938-.855469 5.234375-3.238281 5.941406-6.238281.707032-3-.257812-6.148438-2.523437-8.238282l-18.125-17.261718 17.199219-12.289063c1.910156-1.359375 3.171875-3.445313 3.492187-5.769531zm0 0"/><path d="m114.132812 305.332031c1.769532 1.414063 4.027344 2.070313 6.277344 1.820313s4.308594-1.386719 5.722656-3.15625l34.132813-42.664063c1.464844-1.832031 2.109375-4.183593 1.785156-6.503906s-1.585937-4.40625-3.488281-5.769531l-17.203125-12.285156 18.128906-17.257813c2.265625-2.089844 3.230469-5.238281 2.523438-8.238281s-2.980469-5.382813-5.941407-6.238282c-2.960937-.855468-6.152343-.042968-8.347656 2.117188l-25.601562 24.378906c-1.839844 1.753906-2.804688 4.238282-2.625 6.777344.179687 2.539062 1.480468 4.863281 3.550781 6.34375l18.265625 13.050781-28.507812 35.632813c-2.941407 3.679687-2.347657 9.046875 1.328124 11.992187zm0 0"/></svg>