<svg height="464pt" viewBox="-48 0 463 464" width="464pt" xmlns="http://www.w3.org/2000/svg"><path d="m242.5 8.902344v57.097656h55.363281zm0 0"/><path d="m206.984375 389.84375c.054687-10.175781 1.851563-20.269531 5.308594-29.84375h-165.824219c-3.3125 0-6-2.6875-6-6s2.6875-6 6-6h171.363281c6.167969-11 14.707031-20 24.929688-28h-196.292969c-3.3125 0-6-2.6875-6-6s2.6875-6 6-6h207.21875c2.070312.050781 3.960938 1.183594 4.988281 2.984375 10.757813-4.65625 22.359375-7.035156 34.082031-6.984375 4.265626-.007812 8.527344.316406 12.742188.980469v-226.980469h-68.652344c-3.3125 0-6.347656-2.539062-6.347656-5.851562v-72.148438h-230v418h211.207031c-3.113281-9.0625-4.707031-18.574219-4.722656-28.15625zm-160.515625-281.84375h107.21875c3.3125 0 6 2.6875 6 6s-2.6875 6-6 6h-107.21875c-3.3125 0-6-2.6875-6-6s2.6875-6 6-6zm0 40h207.21875c3.3125 0 6 2.6875 6 6s-2.6875 6-6 6h-207.21875c-3.3125 0-6-2.6875-6-6s2.6875-6 6-6zm0 40h207.21875c3.3125 0 6 2.6875 6 6s-2.6875 6-6 6h-207.21875c-3.3125 0-6-2.6875-6-6s2.6875-6 6-6zm0 40h207.21875c3.3125 0 6 2.6875 6 6s-2.6875 6-6 6h-207.21875c-3.3125 0-6-2.6875-6-6s2.6875-6 6-6zm0 40h207.21875c3.3125 0 6 2.6875 6 6s-2.6875 6-6 6h-207.21875c-3.3125 0-6-2.6875-6-6s2.6875-6 6-6zm0 0"/><path d="m218.984375 390c0 40.867188 33.128906 74 74 74 40.867187 0 74-33.132812 74-74s-33.132813-74-74-74c-40.851563.046875-73.953125 33.148438-74 74zm79.515625-52v6c11.90625 2.609375 20.398438 13.148438 20.417969 25.335938 0 3.316406-2.6875 6-6 6-3.316407 0-6-2.683594-6-6 0-7.695313-6.238281-13.933594-13.933594-13.933594-7.699219 0-13.9375 6.238281-13.933594 13.933594 0 7.699218 6.238281 13.9375 13.933594 13.933593 13.25 0 24.371094 9.984375 25.789063 23.160157 1.417968 13.175781-7.324219 25.296874-20.273438 28.113281v8.457031c0 3.3125-2.6875 6-6 6s-6-2.6875-6-6v-8.679688c-11.441406-2.972656-19.433594-13.292968-19.449219-25.113281 0-3.316406 2.683594-6 6-6 3.3125 0 6 2.683594 6 6 0 7.695313 6.238281 13.933594 13.933594 13.933594s13.933594-6.238281 13.933594-13.933594c0-7.695312-6.238281-13.933593-13.933594-13.933593-13.0625 0-24.085937-9.710938-25.730469-22.667969-1.644531-12.957031 6.601563-25.117188 19.246094-28.378907v-6.226562c0-3.3125 2.6875-6 6-6s6 2.6875 6 6zm0 0"/></svg>