<svg xmlns="http://www.w3.org/2000/svg" viewBox="0 0 150 150" version="1.1">
<defs><style>.svgPending{fill:currentColor !important;} </style></defs>
<path class="svgPending" d="M 133.980469 62.746094 C 124.605469 53.371094 112.15625 48.226562 98.910156 48.226562 C 85.664062 48.226562 73.214844 53.386719 63.839844 62.746094 C 54.464844 72.105469 49.320312 84.570312 49.320312 97.816406 C 49.320312 111.058594 54.480469 123.523438 63.839844 132.886719 C 73.214844 142.261719 85.664062 147.40625 98.910156 147.40625 C 112.15625 147.40625 124.621094 142.246094 133.980469 132.886719 C 143.355469 123.511719 148.5 111.058594 148.5 97.816406 C 148.5 84.570312 143.339844 72.121094 133.980469 62.746094 Z M 98.910156 141.554688 C 74.789062 141.554688 55.171875 121.933594 55.171875 97.816406 C 55.171875 73.695312 74.789062 54.074219 98.910156 54.074219 C 123.03125 54.074219 142.648438 73.695312 142.648438 97.816406 C 142.648438 121.933594 123.03125 141.554688 98.910156 141.554688 Z M 98.910156 141.554688 "/>
<path class="svgPending" d="M 52.230469 141.554688 L 8.296875 141.554688 C 7.785156 141.554688 7.351562 141.121094 7.351562 140.609375 L 7.351562 9.390625 C 7.351562 8.878906 7.785156 8.445312 8.296875 8.445312 L 106.964844 8.445312 C 107.476562 8.445312 107.910156 8.878906 107.910156 9.390625 L 107.910156 30.960938 C 107.910156 32.578125 109.214844 33.886719 110.835938 33.886719 C 112.453125 33.886719 113.761719 32.578125 113.761719 30.960938 L 113.761719 9.390625 C 113.761719 5.640625 110.714844 2.59375 106.964844 2.59375 L 8.296875 2.59375 C 4.546875 2.59375 1.5 5.640625 1.5 9.390625 L 1.5 140.625 C 1.5 144.375 4.546875 147.421875 8.296875 147.421875 L 52.230469 147.421875 C 53.851562 147.421875 55.15625 146.113281 55.15625 144.496094 C 55.15625 142.875 53.851562 141.554688 52.230469 141.554688 Z M 52.230469 141.554688 "/>
<path class="svgPending" d="M 96.464844 34.273438 C 96.464844 32.65625 95.160156 31.351562 93.539062 31.351562 L 21.359375 31.351562 C 19.738281 31.351562 18.433594 32.65625 18.433594 34.273438 C 18.433594 35.894531 19.738281 37.199219 21.359375 37.199219 L 93.539062 37.199219 C 95.160156 37.199219 96.464844 35.878906 96.464844 34.273438 Z M 96.464844 34.273438 "/>
<path class="svgPending" d="M 55.558594 62.773438 C 55.558594 61.15625 54.253906 59.851562 52.636719 59.851562 L 21.359375 59.851562 C 19.738281 59.851562 18.433594 61.15625 18.433594 62.773438 C 18.433594 64.394531 19.738281 65.699219 21.359375 65.699219 L 52.636719 65.699219 C 54.253906 65.699219 55.558594 64.394531 55.558594 62.773438 Z M 55.558594 62.773438 "/>
<path class="svgPending" d="M 40.875 88.363281 L 21.375 88.363281 C 19.753906 88.363281 18.449219 89.671875 18.449219 91.289062 C 18.449219 92.910156 19.753906 94.214844 21.375 94.214844 L 40.875 94.214844 C 42.496094 94.214844 43.800781 92.910156 43.800781 91.289062 C 43.800781 89.671875 42.480469 88.363281 40.875 88.363281 Z M 40.875 88.363281 "/>
<path class="svgPending" d="M 40.875 116.863281 L 21.375 116.863281 C 19.753906 116.863281 18.449219 118.171875 18.449219 119.789062 C 18.449219 121.410156 19.753906 122.714844 21.375 122.714844 L 40.875 122.714844 C 42.496094 122.714844 43.800781 121.410156 43.800781 119.789062 C 43.800781 118.183594 42.480469 116.863281 40.875 116.863281 Z M 40.875 116.863281 "/>
<path class="svgPending" d="M 79.621094 73.425781 C 79.621094 85.378906 89.144531 94.125 94.695312 98.203125 C 89.144531 102.285156 79.621094 111.03125 79.621094 122.984375 L 79.621094 125.910156 L 120.359375 125.910156 L 120.359375 122.984375 C 120.359375 111.03125 110.835938 102.285156 105.285156 98.203125 C 110.835938 94.125 120.359375 85.378906 120.359375 73.425781 L 120.359375 70.5 L 79.621094 70.5 Z M 114.253906 120.058594 L 85.753906 120.058594 C 87.421875 110.835938 96.449219 104.023438 100.003906 101.65625 C 103.558594 104.023438 112.589844 110.835938 114.253906 120.058594 Z M 114.253906 76.351562 C 112.589844 85.574219 103.546875 92.386719 100.003906 94.753906 C 96.449219 92.398438 87.40625 85.605469 85.753906 76.351562 Z M 114.253906 76.351562 "/>
</svg>
 